<svg width="400" height="400" viewBox="0 0 400 400" fill="none" xmlns="http://www.w3.org/2000/svg">
  <rect width="400" height="400" fill="#F3F4F6"/>
  <path d="M200 150C177.909 150 160 167.909 160 190C160 212.091 177.909 230 200 230C222.091 230 240 212.091 240 190C240 167.909 222.091 150 200 150ZM200 210C188.954 210 180 201.046 180 190C180 178.954 188.954 170 200 170C211.046 170 220 178.954 220 190C220 201.046 211.046 210 200 210Z" fill="#D1D5DB"/>
  <path d="M120 100H280C291.046 100 300 108.954 300 120V280C300 291.046 291.046 300 280 300H120C108.954 300 100 291.046 100 280V120C100 108.954 108.954 100 120 100ZM120 280H280V120H120V280Z" fill="#D1D5DB"/>
  <path d="M150 250L180 220L200 240L240 200L270 230V260H150V250Z" fill="#D1D5DB"/>
</svg>